<mxfile host="app.diagrams.net" modified="2023-11-09T10:31:02.948Z" agent="Mozilla/5.0 (Windows NT 10.0; Win64; x64) AppleWebKit/537.36 (KHTML, like Gecko) Chrome/119.0.0.0 Safari/537.36" version="22.1.0" etag="XICSp7NVLjPN3pEVgfWT" type="github">
  <diagram name="Page-1" id="o27OOz4pwNAPVPq6cgaJ">
    <mxGraphModel>
      <root>
        <mxCell id="0" />
        <mxCell id="1" parent="0" />
      </root>
    </mxGraphModel>
  </diagram>
</mxfile>
